<svg xmlns="http://www.w3.org/2000/svg" viewBox="0 0 512 512" role="img" aria-labelledby="title desc">
  <title id="title">AppCatalog Logo</title>
  <desc id="desc">A catalog document with application, code, server, and user tiles.</desc>
  <defs>
    <linearGradient id="navy" x1="96" x2="430" y1="68" y2="430" gradientUnits="userSpaceOnUse">
      <stop offset="0" stop-color="#15559a"/>
      <stop offset="1" stop-color="#082b58"/>
    </linearGradient>
    <linearGradient id="blue" x1="181" x2="260" y1="129" y2="211" gradientUnits="userSpaceOnUse">
      <stop offset="0" stop-color="#3b8ff4"/>
      <stop offset="1" stop-color="#245bc5"/>
    </linearGradient>
    <linearGradient id="green" x1="288" x2="371" y1="132" y2="210" gradientUnits="userSpaceOnUse">
      <stop offset="0" stop-color="#29b99e"/>
      <stop offset="1" stop-color="#168a75"/>
    </linearGradient>
    <linearGradient id="purple" x1="179" x2="260" y1="244" y2="327" gradientUnits="userSpaceOnUse">
      <stop offset="0" stop-color="#8574df"/>
      <stop offset="1" stop-color="#6251b8"/>
    </linearGradient>
    <linearGradient id="cyan" x1="290" x2="371" y1="242" y2="327" gradientUnits="userSpaceOnUse">
      <stop offset="0" stop-color="#37a8dc"/>
      <stop offset="1" stop-color="#1e75b7"/>
    </linearGradient>
    <filter id="softShadow" x="-20%" y="-20%" width="140%" height="140%">
      <feDropShadow dx="0" dy="12" stdDeviation="16" flood-color="#082b58" flood-opacity="0.16"/>
    </filter>
  </defs>

  <rect width="512" height="512" rx="96" fill="#ffffff"/>
  <g filter="url(#softShadow)">
    <path d="M142 78h224c31 0 56 25 56 56v232c0 31-25 56-56 56H155c-28 0-51-23-51-51V118c0-22 16-40 38-40Z" fill="#fff"/>
    <path d="M142 78h224c31 0 56 25 56 56v232c0 31-25 56-56 56H155c-28 0-51-23-51-51V118c0-22 16-40 38-40Zm28 26v264h196c17 0 30-13 30-30V134c0-17-13-30-30-30H170Zm-40 274c3 12 13 18 25 18h211c17 0 30-13 30-30v-8c0-7 5-13 13-13s13 6 13 13v8c0 31-25 56-56 56H155c-28 0-51-23-51-51 0-23 15-42 36-49V104c-6 2-10 8-10 14v260Z" fill="url(#navy)"/>
    <path d="M148 388h58v58c0 6-7 10-12 6l-17-12-17 12c-5 4-12 0-12-6v-58Z" fill="url(#navy)"/>

    <rect x="190" y="136" width="84" height="84" rx="22" fill="url(#blue)"/>
    <rect x="296" y="136" width="84" height="84" rx="22" fill="url(#green)"/>
    <rect x="190" y="250" width="84" height="84" rx="22" fill="url(#purple)"/>
    <rect x="296" y="250" width="84" height="84" rx="22" fill="url(#cyan)"/>

    <g fill="#fff">
      <rect x="211" y="157" width="20" height="20" rx="3"/>
      <rect x="238" y="157" width="20" height="20" rx="3"/>
      <rect x="211" y="184" width="20" height="20" rx="3"/>
      <rect x="238" y="184" width="20" height="20" rx="3"/>

      <rect x="314" y="156" width="52" height="44" rx="7"/>
      <rect x="319" y="170" width="42" height="24" rx="2" fill="#1aa08a"/>
      <rect x="319" y="163" width="16" height="4" rx="2" fill="#1aa08a"/>
      <circle cx="350" cy="164" r="3" fill="#1aa08a"/>
      <circle cx="359" cy="164" r="3" fill="#1aa08a"/>
      <path d="M334 184l-10-10 10-10 6 6-4 4 4 4-6 6Zm17 0-6-6 4-4-4-4 6-6 10 10-10 10Zm-9 2-7-2 8-24 7 2-8 24Z"/>

      <rect x="207" y="272" width="46" height="19" rx="4"/>
      <rect x="207" y="298" width="46" height="19" rx="4"/>
      <rect x="207" y="324" width="52" height="7" rx="3.5"/>
      <rect x="214" y="279" width="16" height="4" rx="2" fill="#6f60c6"/>
      <rect x="214" y="305" width="20" height="4" rx="2" fill="#dfe7f4"/>
      <circle cx="239" cy="281" r="3" fill="#6f60c6"/>
      <circle cx="248" cy="281" r="3" fill="#6f60c6"/>
      <circle cx="239" cy="307" r="3" fill="#6f60c6"/>
      <circle cx="248" cy="307" r="3" fill="#6f60c6"/>

      <circle cx="338" cy="278" r="19"/>
      <path d="M315 323c1-25 45-25 46 0 0 4-3 7-7 7h-32c-4 0-7-3-7-7Z"/>
    </g>

    <rect x="190" y="356" width="190" height="10" rx="5" fill="url(#navy)"/>
    <rect x="190" y="379" width="122" height="10" rx="5" fill="url(#navy)"/>
  </g>
</svg>
